<?xml version="1.0" encoding="UTF-8"?>
<svg width="210px" height="42px" viewBox="0 0 210 42" version="1.1" xmlns="http://www.w3.org/2000/svg" xmlns:xlink="http://www.w3.org/1999/xlink">
    <g stroke="none" stroke-width="1" fill="none" fill-rule="evenodd" opacity="0.799999952">
        <g transform="translate(-154.000000, -173.000000)" fill="#010101" fill-rule="nonzero">
            <g transform="translate(154.000000, 173.000000)">
                <g transform="translate(88.085106, 17.181818)">
                    <path d="M0.510638298,0.190909091 L8.10638298,0.190909091 C12.9574468,0.190909091 16.5957447,1.65454545 16.5957447,6.04545455 C16.5957447,8.27272727 15.3191489,10.5 12.5106383,11.2 L12.5106383,11.3272727 C15.9574468,11.9 17.8723404,13.7454545 17.8723404,16.9272727 C17.8723404,21.7 13.9787234,23.8636364 8.74468085,23.8636364 L0.510638298,23.8636364 L0.510638298,0.190909091 Z M7.72340426,9.99090909 C11.0425532,9.99090909 12.4468085,8.71818182 12.4468085,6.49090909 C12.4468085,4.32727273 10.9148936,3.43636364 7.85106383,3.43636364 L4.78723404,3.43636364 L4.78723404,9.99090909 L7.72340426,9.99090909 Z M8.29787234,20.6181818 C11.8085106,20.6181818 13.7234043,19.2818182 13.7234043,16.6090909 C13.7234043,14.1272727 11.8085106,12.9818182 8.29787234,12.9818182 L4.72340426,12.9818182 L4.72340426,20.6181818 L8.29787234,20.6181818 Z" id="Shape"></path>
                    <path d="M20.8723404,6.10909091 L24.3191489,6.10909091 L24.6382979,9.29090909 L24.7659574,9.29090909 C26.0425532,7 27.9574468,5.72727273 29.8085106,5.72727273 C30.7021277,5.72727273 31.2765957,5.85454545 31.8510638,6.10909091 L31.1489362,9.73636364 C30.5106383,9.54545455 30.0638298,9.41818182 29.2978723,9.41818182 C27.893617,9.41818182 26.1702128,10.3727273 25.0851064,13.1090909 L25.0851064,23.9909091 L20.8723404,23.9909091 L20.8723404,6.10909091 Z" id="Shape"></path>
                    <path d="M40.4680851,5.66363636 C44.9361702,5.66363636 48.9574468,9.1 48.9574468,15.0181818 C48.9574468,20.9363636 44.9361702,24.3727273 40.4680851,24.3727273 C36,24.3727273 31.9787234,20.9363636 31.9787234,15.0181818 C31.9787234,9.03636364 36.0638298,5.66363636 40.4680851,5.66363636 Z M40.4680851,20.9363636 C43.0851064,20.9363636 44.6808511,18.5818182 44.6808511,15.0181818 C44.6808511,11.4545455 43.0851064,9.03636364 40.4680851,9.03636364 C37.8510638,9.03636364 36.2553191,11.3909091 36.2553191,15.0181818 C36.3191489,18.5818182 37.8510638,20.9363636 40.4680851,20.9363636 Z" id="Shape"></path>
                    <path d="M50.2340426,6.10909091 L54.4468085,6.10909091 L56.6170213,15.3363636 C57,17.0545455 57.2553191,18.7090909 57.5744681,20.4272727 L57.7021277,20.4272727 C58.0212766,18.7090909 58.4042553,16.9909091 58.8510638,15.3363636 L61.1489362,6.10909091 L64.9787234,6.10909091 L67.3404255,15.3363636 C67.787234,17.0545455 68.1702128,18.7090909 68.5531915,20.4272727 L68.6808511,20.4272727 C69,18.7090909 69.3191489,16.9909091 69.6382979,15.3363636 L71.8085106,6.10909091 L75.7659574,6.10909091 L71.2340426,23.9272727 L66.2553191,23.9272727 L64.1489362,15.5909091 C63.7659574,13.9363636 63.4468085,12.2818182 63.0638298,10.3727273 L62.9361702,10.3727273 C62.6170213,12.2818182 62.2978723,13.9363636 61.8510638,15.5909091 L59.8085106,23.8636364 L55.0212766,23.8636364 L50.2340426,6.10909091 Z" id="Shape"></path>
                    <path d="M78.5106383,19.2181818 C80.106383,20.4272727 81.6382979,21.1909091 83.4893617,21.1909091 C85.4042553,21.1909091 86.2978723,20.3 86.2978723,19.0272727 C86.2978723,17.5636364 84.3829787,16.8636364 82.4680851,16.1636364 C80.106383,15.2727273 77.4255319,13.9363636 77.4255319,10.9454545 C77.4255319,7.82727273 79.9148936,5.6 83.9361702,5.6 C86.4255319,5.6 88.4042553,6.61818182 89.8723404,7.76363636 L87.9574468,10.3090909 C86.7446809,9.41818182 85.4680851,8.78181818 84,8.78181818 C82.212766,8.78181818 81.3829787,9.60909091 81.3829787,10.7545455 C81.3829787,12.1545455 83.1702128,12.7272727 85.0851064,13.4272727 C87.5106383,14.3181818 90.1914894,15.5272727 90.1914894,18.8363636 C90.1914894,21.8909091 87.7659574,24.3727273 83.2340426,24.3727273 C80.8085106,24.3727273 78.1914894,23.2909091 76.4680851,21.8909091 L78.5106383,19.2181818 Z" id="Shape"></path>
                    <path d="M100.148936,5.66363636 C105,5.66363636 107.553191,9.16363636 107.553191,14.1272727 C107.553191,14.9545455 107.489362,15.6545455 107.361702,16.1 L96,16.1 C96.3829787,19.3454545 98.4255319,21.1272727 101.297872,21.1272727 C102.829787,21.1272727 104.106383,20.6818182 105.446809,19.7909091 L106.851064,22.4 C105.12766,23.5454545 103.021277,24.3090909 100.723404,24.3090909 C95.7446809,24.3090909 91.9148936,20.8727273 91.9148936,14.9545455 C91.9148936,9.22727273 96,5.66363636 100.148936,5.66363636 Z M103.914894,13.4272727 C103.914894,10.6272727 102.702128,8.90909091 100.276596,8.90909091 C98.1702128,8.90909091 96.3191489,10.5 96,13.4272727 L103.914894,13.4272727 Z" id="Shape"></path>
                    <path d="M110.680851,6.10909091 L114.12766,6.10909091 L114.446809,9.29090909 L114.574468,9.29090909 C115.851064,7 117.765957,5.72727273 119.617021,5.72727273 C120.510638,5.72727273 121.085106,5.85454545 121.659574,6.10909091 L120.957447,9.73636364 C120.319149,9.54545455 119.87234,9.41818182 119.106383,9.41818182 C117.702128,9.41818182 115.978723,10.3727273 114.893617,13.1090909 L114.893617,23.9909091 L110.680851,23.9909091 L110.680851,6.10909091 Z" id="Shape"></path>
                </g>
                <rect id="Rectangle-path" x="76.5957447" y="5.09090909" width="1.91489362" height="36.9090909"></rect>
                <g id="Black">
                    <g id="Group">
                        <g id="layer3_20_" transform="translate(26.263210, 0.000104)">
                            <g id="layer5_20_" transform="translate(9.675919, 0.000000)">
                                <g id="path2554_21_">
                                    <path d="M3.17923066,3.12366045 L2.0734113,7.53353402 C3.63998873,4.40987357 6.17415809,2.06712824 9.07693392,-7.10542736e-15 C6.95744681,2.4346177 5.02226293,4.8692354 3.87036776,7.34978928 C5.85162745,4.54768212 8.52402424,3.03178808 11.5189517,1.97525587 C7.51035649,5.51234196 4.33112583,9.37098134 1.93518388,13.1836845 L-2.84217094e-14,12.3568332 C0.322530647,9.27910897 1.47442581,6.15544852 3.17923066,3.12366045 Z" id="Shape"></path>
                                </g>
                                <g id="path2536_21_" transform="translate(1.382274, 12.862131)">
                                    <path d="M0.322530647,0.137808549 L1.65872904,0.826851294 C1.52050162,1.69963877 1.70480485,3.62895846 2.58024517,4.08832029 C6.45061294,6.47700181 10.0445259,9.04942806 11.4728759,11.6677905 C16.5412146,20.8090909 7.92503875,29.3072848 0.41468226,28.4804335 C4.46935325,25.4945816 5.66732422,19.3391331 4.1468226,12.5865141 C3.54783711,9.96815172 2.58024517,7.5794702 0.875440327,4.8692354 C0.13822742,3.62895846 0.41468226,1.97525587 0.322530647,0.137808549 Z" id="Shape"></path>
                                </g>
                            </g>
                            <g id="layer4_20_" transform="translate(0.000000, 12.862131)">
                                <g id="path2540_21_" transform="translate(0.000000, 4.134256)">
                                    <path d="M9.90629844,0.367489464 C9.6298436,1.79151114 9.30731295,4.36393739 8.06326617,5.32859723 C7.5564323,5.69608669 7.00352262,6.06357616 6.45061294,6.43106562 C4.19289841,7.94695966 1.98125969,9.37098134 0.96759194,12.9999398 C0.737212907,13.7808549 0.921516134,14.6077062 1.10581936,15.3886213 C1.65872904,17.6394943 3.22530647,20.0281758 4.46935325,21.4521975 C4.46935325,21.4981337 4.69973228,21.6818784 4.69973228,21.7278146 C5.71340003,22.9221553 6.03593067,23.2896448 9.90629844,24.1624323 L9.81414682,24.5758579 C7.46428068,23.9786875 5.57517261,23.3815172 4.33112583,22.0034317 C4.33112583,21.9574955 4.10074679,21.7737508 4.10074679,21.7737508 C2.81062421,20.3037929 1.19797097,17.823239 0.645061294,15.4804937 C0.41468226,14.56177 0.230379033,13.8267911 0.506833873,12.8621312 C1.56657743,9.09536424 3.87036776,7.5794702 6.17415809,6.01763998 C6.68099197,5.69608669 7.32605326,5.37453341 7.83288714,4.96110777 C8.89263069,4.27206502 9.39946456,2.11306442 9.90629844,0.367489464 Z" id="Shape"></path>
                                </g>
                                <g id="path2542_21_" transform="translate(3.225306, 10.105960)">
                                    <path d="M7.69465972,0.367489464 C7.74073552,1.97525587 7.5564323,2.80210716 7.97111456,3.95051174 C8.20149359,4.63955449 9.07693392,5.55827815 9.30731295,6.47700181 C9.6298436,7.67134256 9.99845005,9.00349187 9.99845005,9.83034317 C9.99845005,10.7490668 9.95237424,12.4946418 9.53769198,14.3320891 C9.21516134,15.8479831 8.52402424,17.1801325 7.32605326,17.9151114 C6.08200648,17.6854305 4.65365647,17.2260686 3.82429195,16.4910897 C2.16556291,15.067068 0.737212907,12.6783865 0.55290968,10.6112583 C0.41468226,8.91161951 1.98125969,6.38512944 4.19289841,5.1448525 C6.03593067,4.04238411 6.49668874,2.84804335 6.911371,0.826851294 C6.35846132,2.57242625 5.80555164,3.99644792 4.00859518,4.96110777 C1.3822742,6.33919326 0.0460758067,8.59006623 0.184303227,10.795003 C0.368606453,13.5971102 1.47442581,15.4804937 3.68606453,16.9963877 C4.60758067,17.6394943 6.35846132,18.328537 7.46428068,18.5122818 L7.46428068,18.3744732 C8.2936452,18.2366647 9.35338876,16.8585792 9.90629844,15.067068 C10.3670565,13.4133654 10.5513597,11.3462372 10.5052839,10.0140879 C10.4592081,9.23317279 10.1366775,7.5794702 9.49161618,6.06357616 C9.16908553,5.23672486 8.61617585,4.40987357 8.2936452,3.81270319 C7.87896294,3.12366045 7.87896294,1.83744732 7.69465972,0.367489464 Z" id="Shape"></path>
                                </g>
                                <g id="path2544_21_" transform="translate(7.372129, 16.537026)">
                                    <path d="M3.27138227,0.229680915 C3.31745808,1.33214931 3.73214034,2.7102348 3.91644357,4.13425647 C4.05467099,5.19078868 4.00859518,6.24732089 3.96251937,7.16604455 C3.91644357,8.22257676 3.59391292,10.1518964 3.08707905,11.1165563 C2.62632098,10.8868754 2.44201775,10.6571945 2.11948711,10.289705 C1.75088065,9.78440698 1.47442581,9.23317279 1.24404678,8.63600241 C1.05974355,8.17664058 0.82936452,7.62540638 0.737212907,7.028236 C0.598985487,6.10951234 0.645061294,4.63955449 1.70480485,3.16959663 C2.53416937,1.97525587 2.71847259,1.8833835 2.99492743,0.551234196 C2.62632098,1.74557495 2.34986614,1.8833835 1.47442581,2.89397953 C0.506833873,3.99644792 0.368606453,5.65015051 0.368606453,6.98229982 C0.368606453,7.53353402 0.598985487,8.17664058 0.82936452,8.72787477 C1.05974355,9.32504515 1.29012259,9.96815172 1.61265323,10.4275135 C2.11948711,11.1624925 2.7645484,11.6218543 3.08707905,11.6677905 C3.08707905,11.6677905 3.08707905,11.6677905 3.08707905,11.6677905 C3.08707905,11.6677905 3.08707905,11.6677905 3.08707905,11.6677905 L3.08707905,11.6218543 C3.68606453,10.9328116 4.05467099,10.289705 4.19289841,9.60066225 C4.33112583,8.77381096 4.37720163,7.99289585 4.46935325,7.028236 C4.56150486,6.20138471 4.51542905,5.1448525 4.28505002,4.04238411 C4.00859518,2.66429862 3.50176131,1.24027694 3.27138227,0.229680915 Z" id="Shape"></path>
                                </g>
                                <g id="path2550_21_" transform="translate(10.597436, 3.215533)">
                                    <path d="M0.230379033,0 C0.27645484,1.60776641 0.368606453,4.5936183 0.82936452,5.78795906 C0.96759194,6.20138471 2.11948711,7.94695966 2.90277582,10.1059603 C3.4556855,11.5759181 3.59391292,12.9540036 3.68606453,13.3674293 C4.05467099,15.1130042 3.59391292,18.0988561 2.99492743,20.9009633 C2.67239679,22.4168573 1.61265323,24.3002408 0.41468226,25.0352197 L0.184303227,25.4486454 C0.875440327,25.4027092 2.53416937,23.7949428 3.13315485,21.7278146 C4.1468226,18.2826008 4.51542905,16.6748344 4.05467099,12.8161951 C4.00859518,12.4487056 3.82429195,11.1624925 3.22530647,9.83034317 C2.34986614,7.76321493 1.10581936,5.78795906 0.96759194,5.37453341 C0.645061294,4.73142685 0.27645484,1.8833835 0.230379033,0 Z" id="Shape"></path>
                                </g>
                                <g id="path2552_21_" transform="translate(10.136677, 0.000000)">
                                    <path d="M1.24404678,0.275617098 C1.15189517,1.92931969 1.15189517,3.21553281 1.42835001,4.45580975 C1.75088065,5.78795906 3.50176131,7.71727875 4.23897421,9.92221553 C5.62124841,14.1483444 5.25264196,19.6606863 4.28505002,23.9327514 C3.91644357,25.4486454 2.16556291,27.6535822 0.368606453,28.3426249 L1.65872904,28.6641782 C2.34986614,28.618242 4.19289841,26.9186033 4.93011131,24.9892836 C6.08200648,21.9115593 6.31238552,18.2826008 5.85162745,14.4239615 C5.80555164,14.056472 5.20656615,10.7490668 4.60758067,9.37098134 C3.77821615,7.3038531 2.44201775,5.83389524 1.98125969,4.54768212 C1.61265323,3.58302228 1.47442581,1.01059603 1.70480485,0.505298013 L1.24404678,0.275617098 Z" id="Shape"></path>
                                </g>
                            </g>
                        </g>
                        <g id="path2528_16_" transform="translate(0.000000, 3.674895)">
                            <path d="M1.75088065,0.367489464 L26.6778921,0.367489464 C27.5994082,0.367489464 28.4287727,1.14840458 28.4287727,2.11306442 L28.4287727,9.4628537 C28.4287727,10.4275135 27.5994082,11.2084287 26.6778921,11.2084287 L21.5634775,11.2084287 C20.4115824,11.2084287 19.9047485,11.8515352 19.9047485,12.5865141 L19.9047485,36.6111379 C19.9047485,37.4379892 19.2596872,38.0351595 18.4763985,38.0351595 L9.99845005,38.0351595 C9.21516134,38.0351595 8.61617585,37.4379892 8.61617585,36.6111379 L8.61617585,12.3568332 C8.61617585,11.6218543 7.92503875,11.1624925 7.41820488,11.1624925 L1.75088065,11.1624925 C0.783288714,11.1624925 0,10.3815774 0,9.41691752 L0,2.06712824 C0,1.14840458 0.783288714,0.367489464 1.75088065,0.367489464 Z" id="Shape"></path>
                        </g>
                        <g id="path2532_17_" transform="translate(53.908694, 13.780855)">
                            <path d="M11.7954065,0 L14.0070452,0 C14.8364098,0 15.481471,0.643106562 15.481471,1.42402167 L15.481471,9.27910897 C15.481471,10.289705 15.5275469,10.7031306 14.2835001,10.7031306 C11.8414823,10.7031306 10.735663,11.9893438 10.735663,13.4133654 L10.735663,26.6889223 C10.735663,27.2860927 10.1366775,27.8373269 9.44554037,27.8373269 L1.52050162,27.8373269 C0.82936452,27.8373269 0.230379033,27.3320289 0.230379033,26.6889223 L0.230379033,11.5759181 C0.230379033,11.300301 0.230379033,10.9328116 0.27645484,10.7031306 C0.6911371,5.09891632 5.11441454,0.643106562 10.6895871,0.045936183 C10.8278146,0.045936183 11.4728759,0 11.7954065,0 Z" id="Shape"></path>
                        </g>
                    </g>
                    <path d="M46.8590954,21.2684527 C45.522897,20.074112 43.864168,19.063516 42.1132873,18.0988561 C41.3299986,17.6854305 38.9340566,15.802047 39.7634212,13.1377483 L33.7274905,10.6571945 L33.3128082,10.9787477 C35.3401437,14.6077062 34.2804002,16.5370259 33.2667324,17.1801325 C31.2393969,18.5582179 28.2905453,20.3037929 26.8621953,21.8196869 C24.0515711,24.7136665 23.2222066,27.4698374 23.4986614,31.0528597 C23.7751162,35.6924142 27.1386501,39.5510536 31.700155,41.0669476 C33.6814147,41.7100542 35.5244469,41.8019266 37.5517824,41.8019266 C40.8231647,41.8019266 44.2327744,40.9291391 46.6747922,38.907947 C49.3011131,36.7489464 50.8216148,33.4874774 50.8216148,30.1341361 C50.8216148,26.7807947 49.3932648,23.5652619 46.8590954,21.2684527 Z M45.9836551,38.2189043 C43.7259405,40.0563516 39.6712696,41.3425647 37.5057066,41.2506924 C35.1097647,41.1128838 32.7598985,40.7453943 30.6864872,39.7347983 C27.0464985,37.9892234 24.6505566,34.1765202 24.4662533,31.0987959 C24.1437227,24.8055388 27.1847259,23.0140277 29.9953501,20.7172185 C31.5619276,19.4310054 33.7735663,18.7878989 35.0176131,16.4910897 C35.2479921,15.9857917 35.3862195,14.8833233 35.1097647,13.7349187 C34.9715373,13.3214931 34.4186276,11.9434076 34.1882486,11.6218543 L38.7036776,13.5971102 C38.1507679,15.6642384 39.8555728,17.823239 41.237847,18.6041541 C42.6201212,19.3850692 44.7856841,20.8550271 46.1218825,22.0493679 C48.4717486,24.1164961 49.6697196,27.0564118 49.6697196,30.1341361 C49.6697196,33.2118603 48.379597,36.2436484 45.9836551,38.2189043 Z" id="Shape"></path>
                </g>
            </g>
        </g>
    </g>
</svg>
